<?xml version="1.0" encoding="utf-8"?>
<!-- Generator: Adobe Illustrator 22.0.1, SVG Export Plug-In . SVG Version: 6.00 Build 0)  -->
<svg version="1.1" id="Capa_1" xmlns="http://www.w3.org/2000/svg" xmlns:xlink="http://www.w3.org/1999/xlink" x="0px" y="0px"
	 viewBox="0 0 32.5 26.5" style="enable-background:new 0 0 32.5 26.5;" xml:space="preserve">
<style type="text/css">
	.st0{fill:#FFFFFF;}
</style>
<g>
	<g>
		<path class="st0" d="M13.3,24.5c0-0.1-0.1-0.2,0-0.3c0-0.1,0-0.1-0.1-0.2S12.9,24,12.9,24c0,0-0.1,0-0.2-0.1c-0.2,0-0.2,0-0.2,0
			h-0.3h-0.2H6c-0.9,0-1.7-0.3-2.3-1c-0.6-0.6-1-1.4-1-2.3V6c0-0.9,0.3-1.7,1-2.3c0.6-0.6,1.4-1,2.3-1h6.6c0.2,0,0.3,0,0.4-0.1
			c0.1-0.1,0.2-0.2,0.2-0.4c0-0.2,0.1-0.3,0.1-0.5c0-0.1,0-0.3,0-0.5c0-0.2,0-0.4,0-0.4c0-0.2-0.1-0.3-0.2-0.5
			C12.9,0.1,12.8,0,12.6,0H6c-1.6,0-3,0.6-4.2,1.8C0.6,2.9,0,4.3,0,6v14.6c0,1.6,0.6,3.1,1.8,4.2c1.2,1.2,2.6,1.8,4.2,1.8h6.6
			c0.2,0,0.3,0,0.4-0.1c0.1-0.1,0.2-0.2,0.2-0.4c0-0.2,0.1-0.3,0.1-0.5c0-0.1,0-0.3,0-0.5C13.3,24.7,13.3,24.6,13.3,24.5z"/>
		<path class="st0" d="M32.1,12.3L20.8,1.1c-0.3-0.3-0.6-0.4-0.9-0.4c-0.4,0-0.7,0.1-0.9,0.4c-0.3,0.3-0.4,0.6-0.4,0.9v6H9.3
			C8.9,8,8.6,8.1,8.4,8.4C8.1,8.6,8,8.9,8,9.3v8c0,0.4,0.1,0.7,0.4,0.9c0.3,0.3,0.6,0.4,0.9,0.4h9.3v6c0,0.4,0.1,0.7,0.4,0.9
			c0.3,0.3,0.6,0.4,0.9,0.4c0.4,0,0.7-0.1,0.9-0.4l11.3-11.3c0.3-0.3,0.4-0.6,0.4-0.9C32.5,12.9,32.4,12.6,32.1,12.3z"/>
	</g>
</g>
</svg>
