<?xml version="1.0" encoding="utf-8"?>
<!-- Generator: Adobe Illustrator 22.0.1, SVG Export Plug-In . SVG Version: 6.00 Build 0)  -->
<svg version="1.1" xmlns="http://www.w3.org/2000/svg" xmlns:xlink="http://www.w3.org/1999/xlink" x="0px" y="0px"
	 viewBox="0 0 1024 1024" style="enable-background:new 0 0 1024 1024;" xml:space="preserve">
<style type="text/css">
	.st0{fill:#013132;}
	.st1{fill:#32CA97;}
	.st2{fill:#27B384;}
	.st3{fill:#FFFFFF;}
</style>
<g id="Capa_2">
	<g>
		<g>
			<path class="st0" d="M380.8,331c-95.7,38.9-166.1,117-183.4,210.2c-64.5-58.2-36.6-144.9-12.6-184l51,29.9
				c8.8,5.2,20.1,2.2,25.3-6.5l16.1-27.3L99.8,249.1l-16.1,27.3c-5.2,8.8-2.2,20.1,6.6,25.2l47.8,28c-32.7,53-55.8,212.1,58.2,277
				c4.6,14.9,14.8,30.9,35,46.2c-16.8,16.2-26.6,35.5-26.6,58.4c0,57.8,17.8,113,53.1,156.4c8.6,10.6,27,30.7,36.7,40.4
				C349.2,963,431.3,993,519.2,993c86.9,0,165.7-31.8,222.7-83c7.5-4.5,37-40,37-40c34.5-45.2,54.8-99.9,54.8-158.7
				c0-17.1-5.8-37.9-26.6-58c16.9-12.6,29-27.4,34.6-44.7C958.9,544.7,954.4,377,916,327.2l39.2-28.9c8.2-6.1,10-17.6,3.9-25.8
				L940.3,247L774.8,369l18.8,25.5c6,8.2,17.6,9.9,25.8,3.9l53-39c28.3,36.8,35.9,126.2-30.9,183.9
				c-16.8-94.7-88.3-174.1-185.7-213.1C655.8,330.2,532.4,286.3,380.8,331z M519.2,950.6c-129.9,0-239-79.7-266.7-186.2
				c62,24.7,158.6,39.5,264.5,39.5c108.7,0,207.9-15.8,269.5-41.7C759.7,869.8,650.1,950.6,519.2,950.6z M792.7,712.7
				c-41.9,25.4-139.9,49.5-275.8,49.5c-114.7,0-219.8-18.3-271.2-46.8c0-1.4-0.1-2.8-0.1-4.1c0-12.9,8.9-25.1,24.9-36.1
				c9.7,4.2,20.6,8.3,32.7,12.1c57.3,18,134,28,215.9,28c87.6,0,183.8-11.5,248.9-39.9c15.8,11,24.7,23.1,24.7,36
				C792.8,711.7,792.8,712.2,792.7,712.7z M769.2,627c-15,8.5-34.4,16.2-57.5,22.7c-50.6,14.3-118.3,23.1-192.5,23.1
				c-74.2,0-141.9-8.8-192.5-23.1c-23.1-6.6-42.7-14.2-57.7-22.8c-21.3-12.2-33.5-26.1-33.5-40.8c0-132,127.2-239.3,283.6-239.3
				c156.4,0,283.6,107.4,283.6,239.3C802.8,600.9,790.6,614.8,769.2,627z"/>
			<path class="st1" d="M769.2,627c-15,8.5-34.4,16.2-57.5,22.7c-50.6,14.3-118.3,23.1-192.5,23.1c-74.2,0-141.9-8.8-192.5-23.1
				c-23.1-6.6-42.7-14.2-57.7-22.8c-21.3-12.2-33.5-26.1-33.5-40.8c0-132,127.2-239.3,283.6-239.3c156.4,0,283.6,107.4,283.6,239.3
				C802.8,600.9,790.6,614.8,769.2,627z"/>
			<path class="st2" d="M623.7,608.6c117.2-23.4,112-125,83.3-164c-28.6-39.1-10.5-45.2-10.5-45.2
				c64.8,43.9,106.3,111.3,106.3,186.7c0,14.8-12.2,28.7-33.7,41c-15,8.5-34.4,16.2-57.5,22.7c-50.6,14.3-118.3,23.1-192.5,23.1
				c-74.2,0-141.9-8.8-192.5-23.1c-23.1-6.6-42.7-14.2-57.7-22.8c-21.3-12.2-33.2-34.8-30.7-33.9C361.4,637,506.6,632,623.7,608.6z"
				/>
			<path class="st1" d="M519.2,950.6c-129.9,0-239-79.7-266.7-186.2c62,24.7,158.6,39.5,264.5,39.5c108.7,0,207.9-15.8,269.5-41.7
				C759.7,869.8,650.1,950.6,519.2,950.6z"/>
			<path class="st2" d="M792.7,712.7c-41.9,25.4-139.9,49.5-275.8,49.5c-114.7,0-219.8-18.3-271.2-46.8c0-1.4-0.1-2.8-0.1-4.1
				c0-12.9,8.9-25.1,24.9-36.1c9.7,4.2,20.6,8.3,32.7,12.1c57.3,18,134,28,215.9,28c87.6,0,183.8-11.5,248.9-39.9
				c15.8,11,24.7,23.1,24.7,36C792.8,711.7,792.8,712.2,792.7,712.7z"/>
			<g>
				<path class="st3" d="M414.8,444.6c36.2,0,65.7,29.5,65.7,65.7s-29.5,65.7-65.7,65.7S349,546.6,349,510.3
					S378.5,444.6,414.8,444.6"/>
				<path class="st3" d="M630.9,444.6c36.2,0,65.7,29.5,65.7,65.7s-29.5,65.7-65.7,65.7s-65.7-29.5-65.7-65.7
					S594.6,444.6,630.9,444.6"/>
				<g>
					<path class="st0" d="M414.8,444.6c36.2,0,65.7,29.5,65.7,65.7s-29.5,65.7-65.7,65.7S349,546.6,349,510.3
						S378.5,444.6,414.8,444.6 M414.8,421.1c-49.2,0-89.2,39.9-89.2,89.2s39.9,89.2,89.2,89.2s89.2-39.9,89.2-89.2
						S464,421.1,414.8,421.1L414.8,421.1z"/>
					<path class="st0" d="M452,493.6c-3.5,6.5-10.4,10.9-18.3,10.9c-11.5,0-20.8-9.3-20.8-20.8c0-5.4,2.1-10.4,5.5-14.1
						c-1.4-0.1-2.8-0.2-4.2-0.2c-23,0-41.7,18.6-41.7,41.7c0,23,18.6,41.7,41.7,41.7s41.7-18.6,41.7-41.7
						C455.8,504.7,454.4,498.8,452,493.6z M412.8,533.1c-5.8,0-10.4-4.7-10.4-10.4c0-5.8,4.7-10.4,10.4-10.4
						c5.8,0,10.4,4.7,10.4,10.4C423.2,528.4,418.6,533.1,412.8,533.1z"/>
				</g>
				<g>
					<path class="st0" d="M630.9,444.6c36.2,0,65.7,29.5,65.7,65.7s-29.5,65.7-65.7,65.7s-65.7-29.5-65.7-65.7
						S594.6,444.6,630.9,444.6 M630.9,421.1c-49.2,0-89.2,39.9-89.2,89.2s39.9,89.2,89.2,89.2s89.2-39.9,89.2-89.2
						S680.1,421.1,630.9,421.1L630.9,421.1z"/>
					<path class="st0" d="M668.1,493.6c-3.5,6.5-10.4,10.9-18.3,10.9c-11.5,0-20.8-9.3-20.8-20.8c0-5.4,2.1-10.4,5.5-14.1
						c-1.4-0.1-2.8-0.2-4.2-0.2c-23,0-41.7,18.6-41.7,41.7c0,23,18.6,41.7,41.7,41.7c23,0,41.7-18.6,41.7-41.7
						C671.9,504.7,670.5,498.8,668.1,493.6z M628.9,533.1c-5.8,0-10.4-4.7-10.4-10.4c0-5.8,4.7-10.4,10.4-10.4
						c5.8,0,10.4,4.7,10.4,10.4C639.3,528.4,634.7,533.1,628.9,533.1z"/>
				</g>
			</g>
		</g>
		<g>
			<g>
				<path class="st1" d="M268.7,112.2c18.2-13.6,36.7-19.7,55.3-18.2c8.7,0.7,16.5,3.3,23.6,7.9c5,3.1,6.9,6.6,5.7,10.5
					c-9.8,17.4-15.7,38.6-17.7,63.5c-0.8,10.5-0.9,26.1-0.2,46.9c0.7,20.8,0.6,36.4-0.2,46.9c-1.3,16.9-7.3,28-17.9,33.2
					c-7.2,3.5-15.2,4.9-23.8,4.2c-11-0.9-21-4.8-29.8-11.7c-8.8-7-14.6-15.7-17.2-26.2c-0.3-1.4-0.5-2.6-0.4-3.7
					c0.3-3.3,1.9-6.1,4.9-8.2c3-2.1,6.2-3,9.7-2.8c3,0.2,5.2,1.4,6.6,3.5c0.8,1,3.8,5.2,9.1,12.8c3.7,5.4,7.1,9.4,10.2,11.9
					c4.5,3.5,9.4,5.1,14.6,4.8c1.3-0.6,3.6-3.4,6.9-8.5c1.9-7.9,3.2-16.3,3.9-25.3c1-13.1,0.2-33.7-2.4-61.7c0-0.2,0.3-1.3,0.9-3.1
					c0.6-1.9,0.9-3.2,1-4.1c0.2-2.4-1-3-3.5-1.6c-10,5.1-18.7,7.3-26.3,6.7c-3.9-0.3-7.6-1.4-11.2-3.2c-6.3-3.2-11.9-10.4-16.9-21.8
					c-2.3-7.1-3.2-14-2.6-20.7C251.9,131,257.8,120.3,268.7,112.2z M293.6,224.7c-0.3,3.8-2.4,6.7-6.4,8.8c-4,2-7.2,3-9.8,2.8
					c-5-0.4-7.7-5.1-8.1-14.1c-0.4-9.2,2.5-13.6,8.5-13.1c3.7,0.3,7.3,2,10.9,5.2C292.2,217.5,293.9,221,293.6,224.7z M288.6,123
					c-8.2,6-12,13.7-11.4,23.2c0.8,15.5,4.3,23.5,10.5,24c5.2,0.9,9.8-1.9,14-8.3c3.5-6,7-12,10.5-18c2.5-4.1,4-9.1,4.4-15.1
					c0.3-4.2-0.1-7.6-1.3-10c-1.2-2.4-3.2-3.8-6.1-4C303.7,114.2,296.7,117,288.6,123z"/>
				<path class="st0" d="M370.5,124.8c-4.1-25.2-5.1-45.8-2.7-61.7c0.1-1.8,0.9-3.7,2.4-5.7c1.5-2,2.8-3,4.1-2.9
					c12.2-3.3,24.8-4.5,37.8-3.5c19.5,1.5,37.3,7.6,53.4,18.3c2.9,1.8,4.3,3.9,4.1,6.4c-0.3,4.2-4.6,8.5-12.7,12.8
					c-3.4,1.3-6.9,1.8-10.6,1.5c-4.3-0.3-11.5-3.1-21.6-8.4c-9-4.7-16.4-6.9-22.4-6.4c-1,4.6-1.7,9.5-2.1,14.6
					c-0.8,9.8-0.2,21.8,1.8,36.1c1.9,11.8,3.8,23.7,5.7,35.8c3,0.5,8.2,0.5,15.7,0.2c8.5-0.2,14.4-0.2,17.6,0
					c13.2,1,19.2,6.2,18.1,15.5c-0.7,6-7.5,8.9-20.6,8.8c-14.1-0.2-22.1,1.3-23.8,4.4c-1.8,3.1-2.8,6.5-3.1,10
					c-0.4,5.3,1.2,13,4.8,22.9c4.3,12.2,6.7,20.1,7.3,23.8c0.5,1.8,0.7,3.6,0.6,5.4c-0.3,4.2-2.4,7.5-6.2,9.9
					c-3.8,2.4-7.8,3.4-12.2,3.1c-3.7-0.3-6.6-1.5-8.9-3.7c-5.6-6.7-9.3-18.5-11.3-35.3c-2-16.8-5.3-28.6-10-35.2
					c-0.4-0.9-1.1-1.4-2.2-1.5c-0.4,0-2.2,0.2-5.4,0.6c-3.2,0.4-5.6,0.4-7.3-0.2c-5.9-2-8.7-5.4-8.4-10.1c0.1-1.6,0.8-3.1,2.1-4.5
					c1.3-1.5,4.8-3.7,10.5-6.6c4.8-2.5,7.5-4.9,8.2-7.1c0.7-2.2,1.2-4.5,1.4-7c0.3-4-0.1-9.1-1.1-15.2
					C372.5,134.8,371.5,129.8,370.5,124.8z"/>
				<path class="st0" d="M492.9,247.9c3.1,2.7,4.3,7.6,3.8,14.8c-0.6,8-3.4,13.2-8.4,15.5c-2.5,1.4-5,2-7.6,1.8
					c-3.9-0.3-7.1-2.4-9.6-6.3c-2.5-3.9-3.9-8.2-4.2-12.9c-0.2-5.8,1.6-10.2,5.3-13c3-2.5,6.8-3.5,11.3-3.2
					C487.3,244.8,490.5,245.9,492.9,247.9z M492.7,225c-16.9-11.8-24.5-29.1-22.8-51.9c0.4-5.8,1.6-11.4,3.6-16.9
					c2.5-7,6.6-14.2,12.4-21.6c6.7-8.2,10.5-13.1,11.3-14.6c3.8-7.3,9.9-10.7,18.1-10c9.7,0.8,17.9,5.5,24.4,14.3
					c6.5,8.8,11.1,20.2,13.7,34.3c0.9,5.2,1.2,10.3,0.8,15.2c-1.3,17.4-10.8,34.3-28.4,50.6c-4.2,3.9-10.4,5.6-18.7,4.9
					C501.2,229.1,496.4,227.6,492.7,225z M505.7,192.7c1.7,0.6,3.3,0.9,4.8,1c9.7,0.8,15.1-5,16-17.3c0.8-10.5-2.2-20.3-9.1-29.6
					c-0.6-0.5-1.4-0.8-2.2-0.8c-3.5-0.3-8,2.9-13.6,9.5c-5.6,6.6-8.7,13.3-9.2,20C491.7,184,496.1,189.8,505.7,192.7z M535.2,251.7
					c2.8,2.3,3.9,7.1,3.3,14.2c-0.6,8-3.4,13.2-8.4,15.5c-2.5,1.4-5.1,2-7.6,1.8c-3.9-0.3-7.1-2.4-9.5-6.3
					c-2.4-3.9-3.8-8.2-4.1-12.9c-0.2-5.6,1.4-10,4.9-13.1c3-2.5,6.8-3.5,11.3-3.2C529.1,248,532.5,249.4,535.2,251.7z"/>
				<path class="st0" d="M584.4,255c3.1,2.7,4.3,7.6,3.8,14.8c-0.6,8-3.4,13.2-8.4,15.5c-2.5,1.4-5,2-7.6,1.8
					c-3.9-0.3-7.1-2.4-9.6-6.3c-2.5-3.9-3.9-8.2-4.2-12.9c-0.2-5.8,1.6-10.2,5.3-13c3-2.5,6.8-3.5,11.3-3.2
					C578.8,251.9,582,253,584.4,255z M584.2,232.1c-16.9-11.8-24.5-29.1-22.8-51.9c0.4-5.8,1.6-11.4,3.6-16.9
					c2.5-7,6.6-14.2,12.4-21.6c6.7-8.2,10.5-13.1,11.3-14.6c3.8-7.3,9.9-10.7,18.1-10c9.7,0.8,17.9,5.5,24.4,14.3
					c6.5,8.8,11.1,20.2,13.7,34.3c0.9,5.2,1.2,10.3,0.8,15.2c-1.3,17.4-10.8,34.3-28.4,50.6c-4.2,3.9-10.4,5.6-18.7,4.9
					C592.8,236.1,588,234.7,584.2,232.1z M597.2,199.8c1.7,0.6,3.3,0.9,4.8,1c9.7,0.8,15.1-5,16-17.3c0.8-10.5-2.2-20.3-9.1-29.6
					c-0.6-0.5-1.4-0.8-2.2-0.8c-3.5-0.3-8,2.9-13.6,9.5c-5.6,6.6-8.7,13.3-9.2,20C583.2,191.1,587.6,196.9,597.2,199.8z
					 M626.8,258.8c2.8,2.3,3.9,7.1,3.3,14.2c-0.6,8-3.4,13.2-8.4,15.5c-2.5,1.4-5,2-7.6,1.8c-3.9-0.3-7.1-2.4-9.5-6.3
					c-2.4-3.9-3.8-8.2-4.1-12.9c-0.2-5.6,1.4-10,4.9-13.1c3-2.5,6.8-3.5,11.3-3.2C620.7,255.1,624,256.4,626.8,258.8z"/>
				<path class="st0" d="M648.1,209.1c0.9-12.3,6.4-22.5,16.4-30.7c6.3-5.1,17.1-10.8,32.5-17.2c15.4-6.3,25.9-11.4,31.4-15.2
					c3-2.2,5.4-7.4,7.1-15.6c1.9-10.2,3.6-16.5,5.1-19.1c5.2-7.7,11.2-11.2,18.1-10.7c1.5,0.1,3,0.5,4.5,1
					c7.3,3.9,10.1,8.5,8.4,13.8c-11.9,26.7-19.1,56.9-21.7,90.8c-1.8,23-1.4,48.2,1,75.7c-0.1,1.6-1.8,3.2-4.9,4.8
					c-3.2,1.7-6,2.4-8.3,2.2c-5.2,0-9.4-3.6-12.5-11.1c-3.1-7.4-5.6-11.4-7.6-12c-1.9-0.2-4.9-0.2-8.8,0c-3.9,0.1-6.8,0.1-8.5,0
					c-8-0.6-14.6-3-19.7-7.2c-11.7-9.4-19.2-16.2-22.6-20.2C650.5,229.6,647.2,219.8,648.1,209.1z M681.2,207
					c0.5,7,3.4,13.5,8.8,19.5c5.3,6,11.4,9.3,18.2,9.8c2.5,0.2,5.1,0,7.8-0.7c0.3-3.6,0.6-7.4,0.9-11.4c0.4-4.9,1.6-12.3,3.7-22.1
					c2.1-9.8,3.3-17.3,3.7-22.4c-10.4-0.8-19.9,0.9-28.5,5.2C685.2,190,680.4,197.3,681.2,207z"/>
			</g>
		</g>
	</g>
</g>
<g id="Capa_3">
</g>
</svg>
