<?xml version="1.0" encoding="utf-8"?>
<!-- Generator: Adobe Illustrator 22.0.1, SVG Export Plug-In . SVG Version: 6.00 Build 0)  -->
<svg version="1.1" id="Capa_1" xmlns="http://www.w3.org/2000/svg" xmlns:xlink="http://www.w3.org/1999/xlink" x="0px" y="0px"
	 viewBox="0 0 687.4 265" style="enable-background:new 0 0 687.4 265;" xml:space="preserve">
<style type="text/css">
	.st0{fill:#FAFAFA;}
	.st1{fill:#B5B5B5;}
</style>
<g>
	<path class="st0" d="M0,0v265h687.2V0H0z M114,192.3l-39-28.3l-39,28.3l14.9-45.8l-39-28.3h48.2L75,72.2l14.9,45.8h48.2l-39,28.3
		L114,192.3z M250,192.8l-39-28.3l-39,28.3l14.9-45.8l-39-28.3h48.2L211,72.7l14.9,45.8h48.2l-39,28.3L250,192.8z M385,192.3
		l-39-28.3l-39,28.3l14.9-45.8l-39-28.3h48.2L346,72.2l14.9,45.8h48.2l-39,28.3L385,192.3z M522,192.8l-39-28.3l-39,28.3l14.9-45.8
		l-39-28.3h48.2L483,72.7l14.9,45.8h48.2l-39,28.3L522,192.8z M660,192.8l-39-28.3l-39,28.3l14.9-45.8l-39-28.3h48.2L621,72.7
		l14.9,45.8h48.2l-39,28.3L660,192.8z"/>
</g>
<g>
	<g>
		<path class="st1" d="M115.9,194.9L75,165.2l-40.9,29.7l15.6-48.1L8.8,117.1h50.6L75,69l15.6,48.1h50.6l-40.9,29.7L115.9,194.9z
			 M75,162.7l37.1,26.9L97.9,146l37.1-26.9H89.2L75,75.5l-14.2,43.6H15L52.1,146l-14.2,43.6L75,162.7z"/>
	</g>
	<g>
		<path class="st1" d="M251.9,195.4L211,165.7l-40.9,29.7l15.6-48.1l-40.9-29.7h50.6L211,69.5l15.6,48.1h50.6l-40.9,29.7
			L251.9,195.4z M211,163.2l37.1,26.9l-14.2-43.6l37.1-26.9h-45.8L211,76l-14.2,43.6H151l37.1,26.9l-14.2,43.6L211,163.2z"/>
	</g>
	<g>
		<path class="st1" d="M386.9,194.9L346,165.2l-40.9,29.7l15.6-48.1l-40.9-29.7h50.6L346,69l15.6,48.1h50.6l-40.9,29.7L386.9,194.9z
			 M346,162.7l37.1,26.9L368.9,146l37.1-26.9h-45.8L346,75.5l-14.2,43.6H286l37.1,26.9l-14.2,43.6L346,162.7z"/>
	</g>
	<g>
		<path class="st1" d="M523.9,195.4L483,165.7l-40.9,29.7l15.6-48.1l-40.9-29.7h50.6L483,69.5l15.6,48.1h50.6l-40.9,29.7
			L523.9,195.4z M483,163.2l37.1,26.9l-14.2-43.6l37.1-26.9h-45.8L483,76l-14.2,43.6H423l37.1,26.9l-14.2,43.6L483,163.2z"/>
	</g>
	<g>
		<path class="st1" d="M661.9,195.4L621,165.7l-40.9,29.7l15.6-48.1l-40.9-29.7h50.6L621,69.5l15.6,48.1h50.6l-40.9,29.7
			L661.9,195.4z M621,163.2l37.1,26.9l-14.2-43.6l37.1-26.9h-45.8L621,76l-14.2,43.6H561l37.1,26.9l-14.2,43.6L621,163.2z"/>
	</g>
</g>
</svg>
